<svg xmlns="http://www.w3.org/2000/svg" width="60" height="60" viewBox="0 0 60 60">
    <path fill="#FFF" fill-rule="evenodd" d="M30 60C13.431 60 0 46.569 0 30 0 13.431 13.431 0 30 0c16.569 0 30 13.431 30 30 0 16.569-13.431 30-30 30zm9.724-43.807L25.181 30.732l-3.827-3.85a1.026 1.026 0 0 0-.73-.291c-.291 0-.54.098-.747.292l-5.449 5.472a.935.935 0 0 0-.31.711c0 .268.102.517.31.748l10.004 9.996c.22.208.461.31.73.31l.036-.018h.019c.303 0 .546-.099.729-.292l20.686-20.704a.967.967 0 0 0 .292-.711c0-.28-.099-.523-.292-.73l-5.468-5.472a.934.934 0 0 0-.71-.31.999.999 0 0 0-.73.31z"/>
</svg>
