<svg xmlns="http://www.w3.org/2000/svg" xmlns:xlink="http://www.w3.org/1999/xlink" width="267" height="33" viewBox="0 0 267 33">
    <defs>
        <path id="a" d="M12.842 13.675c-.211-1.056-.656-1.864-1.334-2.422-.678-.559-1.515-.838-2.51-.838-.753 0-1.394.159-1.921.476-.528.317-.792.747-.792 1.29 0 .664.422 1.208 1.266 1.63.844.423 2.397.936 4.658 1.54 2.32.634 4.024 1.472 5.11 2.513 1.084 1.042 1.627 2.453 1.627 4.234 0 1.419-.37 2.694-1.108 3.827-.738 1.132-1.793 2.022-3.165 2.671-1.372.65-2.962.974-4.77.974-2.653 0-4.816-.581-6.49-1.744-1.672-1.162-2.81-2.8-3.413-4.913l.18-.588 4.84-1.45c.542 2.536 2.185 3.804 4.928 3.804.934 0 1.695-.196 2.283-.588.588-.393.882-.936.882-1.63 0-.725-.34-1.291-1.017-1.699-.679-.407-1.997-.868-3.957-1.38-2.381-.574-4.175-1.412-5.38-2.514-1.207-1.102-1.81-2.559-1.81-4.37 0-1.207.34-2.302 1.018-3.283.678-.981 1.635-1.758 2.871-2.332 1.236-.574 2.653-.86 4.25-.86 2.412 0 4.372.52 5.879 1.562 1.507 1.041 2.487 2.513 2.94 4.415l-.227.498-4.838 1.177zM27.899 29.57c-1.296 0-2.494-.28-3.595-.838a6.491 6.491 0 0 1-2.622-2.4c-.648-1.041-.972-2.257-.972-3.645 0-2.053.7-3.706 2.102-4.959 1.402-1.253 3.354-2 5.856-2.241l6.104-.634v-.996c0-1.027-.324-1.827-.972-2.4-.648-.574-1.56-.86-2.736-.86-1.055 0-1.906.278-2.554.837-.649.558-1.033 1.32-1.153 2.287l-5.336-.453-.226-.272c.452-2.264 1.515-3.992 3.188-5.185 1.673-1.192 3.73-1.788 6.172-1.788 2.864 0 5.185.717 6.963 2.15 1.779 1.435 2.668 3.45 2.668 6.046v8.106c0 1.418.543 2.128 1.628 2.128.332 0 .618-.045.859-.136l.226.272v4.347c-.934.302-1.974.453-3.12.453-2.442 0-4.145-1.027-5.11-3.08H35c-.996 1.057-2.05 1.865-3.166 2.423-1.115.559-2.427.838-3.934.838zm1.447-4.8c2.02 0 3.828-1.102 5.426-3.306v-2.626l-4.974.634c-1.055.12-1.861.437-2.419.95a2.482 2.482 0 0 0-.836 1.903c0 .754.256 1.35.768 1.788.513.438 1.191.657 2.035.657zm23.83-18.295h4.793v4.529h-4.793v11.14c0 .724.21 1.282.633 1.675.422.392 1.025.589 1.808.589.483 0 1.086-.106 1.81-.317l.316.18v4.846a17.484 17.484 0 0 1-3.98.453c-2.11 0-3.783-.574-5.019-1.72-1.236-1.148-1.854-2.869-1.854-5.163V11.004h-4.024V6.475h4.024V0h.814l5.472 1.902v4.573zm18.584 7.2c-.211-1.056-.656-1.864-1.334-2.422-.678-.559-1.515-.838-2.51-.838-.753 0-1.394.159-1.921.476-.528.317-.792.747-.792 1.29 0 .664.423 1.208 1.267 1.63.844.423 2.396.936 4.657 1.54 2.321.634 4.024 1.472 5.11 2.513 1.085 1.042 1.627 2.453 1.627 4.234 0 1.419-.369 2.694-1.107 3.827-.739 1.132-1.794 2.022-3.166 2.671-1.371.65-2.961.974-4.77.974-2.653 0-4.816-.581-6.489-1.744-1.673-1.162-2.81-2.8-3.414-4.913l.181-.588 4.838-1.45c.543 2.536 2.186 3.804 4.93 3.804.934 0 1.695-.196 2.283-.588.587-.393.881-.936.881-1.63 0-.725-.339-1.291-1.017-1.699-.678-.407-1.997-.868-3.957-1.38-2.381-.574-4.175-1.412-5.38-2.514-1.206-1.102-1.81-2.559-1.81-4.37 0-1.207.34-2.302 1.018-3.283.678-.981 1.636-1.758 2.872-2.332 1.235-.574 2.652-.86 4.25-.86 2.412 0 4.371.52 5.878 1.562 1.507 1.041 2.487 2.513 2.94 4.415l-.227.498-4.838 1.177z"/>
        <linearGradient id="c" x1="50%" x2="50%" y1="0%" y2="100%">
            <stop offset="0%" stop-color="#9EACFF"/>
            <stop offset="20.922%" stop-color="#FF6F69"/>
            <stop offset="47.807%" stop-color="#E958D2"/>
            <stop offset="100%" stop-color="#6800C7"/>
        </linearGradient>
    </defs>
    <g fill="none" fill-rule="evenodd">
        <path fill="#FFF" d="M87.925 21.78c.118 1.815.747 3.25 1.886 4.306 1.139 1.057 2.595 1.585 4.37 1.585 1.509 0 2.751-.35 3.727-1.049.976-.7 1.671-1.659 2.085-2.879l4.393.268.178.223c-.74 2.5-2.004 4.419-3.794 5.758C98.98 31.33 96.755 32 94.092 32c-2.189 0-4.126-.483-5.812-1.45s-2.988-2.329-3.905-4.084C83.458 24.71 83 22.687 83 20.396c0-2.261.51-4.27 1.53-6.025 1.021-1.755 2.375-3.124 4.06-4.106a10.742 10.742 0 0 1 5.502-1.473c2.1 0 3.964.454 5.59 1.361 1.628.908 2.9 2.224 3.817 3.95.917 1.726 1.375 3.764 1.375 6.115v1.562H87.925zm12.202-3.705c-.148-1.606-.784-2.863-1.908-3.771-1.124-.907-2.5-1.361-4.127-1.361-1.538 0-2.861.454-3.97 1.361-1.11.908-1.812 2.165-2.108 3.771h12.113zm18.59 1.25l7.72 12.229h-5.679l-5.013-8.212-5.058 8.212h-5.68l7.765-12.229-6.877-10.087h5.768l4.082 6.249 4.082-6.249h5.768l-6.878 10.087zm17.127-10.087h4.97v4.017h-4.97V25.35c0 .744.214 1.317.643 1.718.43.402 1.058.603 1.886.603.68 0 1.375-.09 2.085-.268l.134.09v4.06a15.585 15.585 0 0 1-3.728.447c-1.893 0-3.386-.528-4.48-1.584-1.095-1.057-1.643-2.596-1.643-4.62v-12.54h-4.126V9.237h4.126v-6.56h.4l4.703 1.651v4.91zM147.38 21.78c.118 1.815.747 3.25 1.886 4.306 1.139 1.057 2.595 1.585 4.37 1.585 1.509 0 2.751-.35 3.727-1.049.976-.7 1.671-1.659 2.086-2.879l4.392.268.178.223c-.74 2.5-2.004 4.419-3.794 5.758-1.79 1.339-4.015 2.008-6.678 2.008-2.189 0-4.126-.483-5.812-1.45s-2.988-2.329-3.905-4.084c-.916-1.756-1.375-3.779-1.375-6.07 0-2.261.51-4.27 1.53-6.025 1.021-1.755 2.375-3.124 4.06-4.106a10.742 10.742 0 0 1 5.502-1.473c2.1 0 3.964.454 5.59 1.361 1.628.908 2.9 2.224 3.817 3.95.917 1.726 1.375 3.764 1.375 6.115v1.562H147.38zm12.202-3.705c-.148-1.606-.784-2.863-1.908-3.771-1.124-.907-2.5-1.361-4.127-1.361-1.538 0-2.861.454-3.97 1.361-1.11.908-1.812 2.165-2.108 3.771h12.113zm13.044-5.936c.917-.952 2.034-1.748 3.35-2.387a9.566 9.566 0 0 1 4.237-.96c2.367 0 4.208.677 5.524 2.03 1.317 1.355 1.975 3.147 1.975 5.379v15.353h-5.058V17.495c0-1.369-.348-2.417-1.043-3.146-.695-.73-1.708-1.094-3.04-1.094-1.123 0-2.21.35-3.26 1.049a9.69 9.69 0 0 0-2.685 2.7v14.55h-5.058V9.238h5.058v2.901zm30.66 3.928c-.208-1.1-.68-1.941-1.42-2.522-.74-.58-1.657-.87-2.751-.87-.858 0-1.598.179-2.219.536-.62.357-.931.877-.931 1.562 0 .714.428 1.309 1.286 1.785.858.476 2.352 1.011 4.482 1.607 2.366.624 4.111 1.443 5.235 2.454 1.124 1.012 1.686 2.366 1.686 4.062 0 1.368-.362 2.61-1.087 3.726s-1.738 1.994-3.04 2.633c-1.3.64-2.81.96-4.525.96-2.632 0-4.762-.617-6.389-1.852-1.627-1.235-2.633-2.953-3.017-5.155l.089-.268 4.215-.714c.295 1.22.843 2.157 1.641 2.812.799.654 1.967.982 3.506.982 1.094 0 2.004-.238 2.728-.714.725-.476 1.087-1.131 1.087-1.964s-.414-1.495-1.242-1.986c-.828-.491-2.292-1.004-4.393-1.54-2.277-.565-3.978-1.376-5.102-2.432s-1.686-2.447-1.686-4.173c0-1.13.325-2.172.976-3.124.65-.952 1.568-1.704 2.75-2.254 1.184-.55 2.53-.826 4.039-.826 2.366 0 4.296.558 5.79 1.674 1.494 1.116 2.388 2.715 2.684 4.798l-.133.223-4.26.58zM213.89 0c.858 0 1.597.312 2.218.937s.932 1.369.932 2.232c0 .863-.31 1.606-.932 2.231-.62.625-1.36.938-2.218.938-.858 0-1.59-.313-2.196-.938a3.094 3.094 0 0 1-.91-2.231c0-.863.303-1.607.91-2.232C212.3.312 213.032 0 213.89 0zm2.573 31.554h-5.102V9.238h5.102v22.316zm14.908-22.762c2.278 0 4.312.506 6.101 1.518 1.79 1.011 3.18 2.395 4.17 4.15.992 1.756 1.487 3.734 1.487 5.936s-.495 4.18-1.486 5.936c-.991 1.755-2.381 3.139-4.17 4.15-1.79 1.012-3.824 1.518-6.102 1.518-2.277 0-4.303-.506-6.078-1.517a10.829 10.829 0 0 1-4.149-4.151c-.99-1.756-1.486-3.734-1.486-5.936s.495-4.18 1.486-5.936a10.829 10.829 0 0 1 4.149-4.15c1.775-1.012 3.8-1.518 6.078-1.518zm0 4.508c-1.952 0-3.55.632-4.792 1.897-1.242 1.264-1.863 2.997-1.863 5.2 0 2.2.621 3.934 1.863 5.199 1.243 1.264 2.84 1.896 4.792 1.896 1.982 0 3.594-.632 4.837-1.896 1.242-1.265 1.863-2.998 1.863-5.2 0-2.231-.621-3.972-1.863-5.222-1.243-1.25-2.855-1.874-4.837-1.874zm20.543-1.16c.917-.953 2.034-1.749 3.35-2.388a9.566 9.566 0 0 1 4.238-.96c2.366 0 4.207.677 5.524 2.03 1.316 1.355 1.974 3.147 1.974 5.379v15.353h-5.058V17.495c0-1.369-.348-2.417-1.043-3.146-.695-.73-1.708-1.094-3.04-1.094-1.123 0-2.21.35-3.26 1.049a9.69 9.69 0 0 0-2.685 2.7v14.55h-5.058V9.238h5.058v2.901z"/>
        <g transform="translate(0 3)">
            <mask id="b" fill="#fff">
                <use xlink:href="#a"/>
            </mask>
            <use fill="#865EFC" fill-rule="nonzero" xlink:href="#a"/>
            <g fill="url(#c)" mask="url(#b)">
                <path d="M0-3.429h78v36H0z"/>
            </g>
        </g>
    </g>
</svg>
