<svg xmlns="http://www.w3.org/2000/svg" width="121" height="49" viewBox="0 0 121 49">
    <g fill="#FFF" fill-rule="evenodd">
        <path d="M49.135 16.828a13.259 13.259 0 0 0-1.703-2.628c-1.38-1.664-3.153-2.96-5.319-3.888-2.166-.928-4.628-1.392-7.388-1.392-3.145 0-6.04.72-8.688 2.16-2.647 1.44-4.749 3.464-6.305 6.072-1.557 2.608-2.335 5.624-2.335 9.048 0 3.424.778 6.44 2.335 9.048 1.556 2.608 3.658 4.632 6.305 6.072 2.647 1.44 5.543 2.16 8.688 2.16 3.85 0 7.124-.952 9.819-2.856 1.95-1.378 3.481-3.187 4.591-5.428V47a2 2 0 0 1-2 2H2a2 2 0 0 1-2-2V2a2 2 0 0 1 2-2h45.135a2 2 0 0 1 2 2v14.828zm0 3.896v10.958l-5.89-.778c-.578 1.92-1.605 3.408-3.081 4.464-1.476 1.056-3.273 1.584-5.39 1.584-2.022 0-3.787-.456-5.295-1.368-1.509-.912-2.664-2.176-3.466-3.792-.802-1.616-1.203-3.48-1.203-5.592 0-2.08.393-3.936 1.179-5.568.786-1.632 1.917-2.904 3.393-3.816 1.476-.912 3.21-1.368 5.199-1.368 2.214 0 4.075.528 5.583 1.584s2.535 2.544 3.08 4.464l5.891-.772zM59.53 43.813c-2.183 0-4.004-.648-5.464-1.944-1.46-1.296-2.19-3.032-2.19-5.208 0-2.208.762-3.96 2.287-5.256 1.524-1.296 3.537-2.072 6.04-2.328l6.98-.72v-1.296c0-1.248-.41-2.2-1.228-2.856-.818-.656-1.95-.984-3.393-.984-1.22 0-2.23.304-3.033.912-.802.608-1.315 1.504-1.54 2.688l-4.765-.24-.24-.192c.449-2.432 1.572-4.296 3.369-5.592 1.797-1.296 3.93-1.944 6.401-1.944 2.92 0 5.279.728 7.076 2.184 1.797 1.456 2.695 3.448 2.695 5.976v9.84c0 .768.169 1.36.506 1.776.336.416.81.624 1.42.624.288 0 .641-.048 1.058-.144l.145.096v3.936a9.55 9.55 0 0 1-3.033.48c-1.155 0-2.182-.272-3.08-.816-.899-.544-1.556-1.44-1.974-2.688h-.192c-2.278 2.464-4.894 3.696-7.846 3.696zm1.01-4.464c2.31 0 4.525-1.216 6.642-3.648v-3.504l-6.257.72c-1.22.16-2.158.552-2.816 1.176-.657.624-.986 1.384-.986 2.28 0 .96.32 1.696.962 2.208.642.512 1.46.768 2.455.768zm29.422-12.672c-.224-1.184-.738-2.088-1.54-2.712-.802-.624-1.797-.936-2.984-.936-.93 0-1.733.192-2.407.576-.673.384-1.01.944-1.01 1.68 0 .768.465 1.408 1.395 1.92.931.512 2.551 1.088 4.862 1.728 2.567.672 4.46 1.552 5.68 2.64 1.219 1.088 1.829 2.544 1.829 4.368 0 1.472-.394 2.808-1.18 4.008-.786 1.2-1.885 2.144-3.297 2.832-1.412.688-3.048 1.032-4.91 1.032-2.855 0-5.166-.664-6.93-1.992-1.765-1.328-2.856-3.176-3.273-5.544l.096-.288 4.572-.768c.321 1.312.915 2.32 1.781 3.024.867.704 2.134 1.056 3.803 1.056 1.187 0 2.174-.256 2.96-.768s1.18-1.216 1.18-2.112c0-.896-.45-1.608-1.348-2.136-.899-.528-2.487-1.08-4.766-1.656-2.47-.608-4.316-1.48-5.535-2.616-1.22-1.136-1.829-2.632-1.829-4.488 0-1.216.353-2.336 1.059-3.36s1.7-1.832 2.984-2.424c1.284-.592 2.744-.888 4.38-.888 2.567 0 4.661.6 6.282 1.8 1.62 1.2 2.59 2.92 2.912 5.16l-.145.24-4.62.624zm14.79 17.136c-2.181 0-4.002-.648-5.462-1.944-1.46-1.296-2.19-3.032-2.19-5.208 0-2.208.762-3.96 2.286-5.256 1.524-1.296 3.538-2.072 6.04-2.328l6.98-.72v-1.296c0-1.248-.41-2.2-1.228-2.856-.818-.656-1.95-.984-3.393-.984-1.22 0-2.23.304-3.032.912-.803.608-1.316 1.504-1.54 2.688l-4.766-.24-.24-.192c.449-2.432 1.572-4.296 3.369-5.592 1.797-1.296 3.93-1.944 6.401-1.944 2.92 0 5.279.728 7.076 2.184 1.797 1.456 2.695 3.448 2.695 5.976v9.84c0 .768.169 1.36.506 1.776.337.416.81.624 1.42.624.288 0 .641-.048 1.059-.144l.144.096v3.936a9.55 9.55 0 0 1-3.032.48c-1.156 0-2.182-.272-3.08-.816-.9-.544-1.557-1.44-1.974-2.688h-.193c-2.278 2.464-4.893 3.696-7.845 3.696zm1.011-4.464c2.31 0 4.525-1.216 6.643-3.648v-3.504l-6.258.72c-1.219.16-2.158.552-2.815 1.176-.658.624-.987 1.384-.987 2.28 0 .96.32 1.696.963 2.208.641.512 1.46.768 2.454.768z"/>
    </g>
</svg>
