<svg xmlns="http://www.w3.org/2000/svg" width="30" height="30" viewBox="0 0 30 30">
    <g fill="none" fill-rule="evenodd">
        <circle cx="16.5" cy="15.5" r="9.5" fill="#FFF" fill-rule="nonzero"/>
        <path fill="#2DCCCD" d="M15 30C6.716 30 0 23.284 0 15 0 6.716 6.716 0 15 0c8.284 0 15 6.716 15 15 0 8.284-6.716 15-15 15zm4.862-21.903l-7.271 7.269-1.914-1.925a.513.513 0 0 0-.365-.146c-.146 0-.27.05-.373.146l-2.725 2.737a.468.468 0 0 0-.155.355c0 .134.051.259.155.374l5.002 4.998c.11.104.23.155.365.155l.018-.01h.01c.15 0 .273-.048.364-.145l10.343-10.352a.484.484 0 0 0 .146-.356c0-.14-.05-.261-.146-.364l-2.734-2.736a.467.467 0 0 0-.355-.156.5.5 0 0 0-.365.156z"/>
    </g>
</svg>
