<svg xmlns="http://www.w3.org/2000/svg" width="33" height="33" viewBox="0 0 33 33">
    <path fill="#FFF" fill-rule="evenodd" d="M33 11.333a8.932 8.932 0 0 0-1.144-1.77c-.927-1.12-2.117-1.993-3.572-2.618-1.455-.625-3.109-.938-4.962-.938-2.112 0-4.057.485-5.835 1.455a10.949 10.949 0 0 0-4.235 4.09c-1.045 1.756-1.568 3.787-1.568 6.093s.523 4.337 1.568 6.093a10.949 10.949 0 0 0 4.235 4.09c1.778.97 3.723 1.454 5.835 1.454 2.586 0 4.784-.64 6.594-1.923 1.31-.928 2.338-2.146 3.084-3.656V31a2 2 0 0 1-2 2H2a2 2 0 0 1-2-2V2a2 2 0 0 1 2-2h29a2 2 0 0 1 2 2v9.333zm0 2.624v7.38l-3.956-.524c-.388 1.293-1.078 2.295-2.07 3.006-.99.711-2.198 1.067-3.62 1.067-1.358 0-2.543-.307-3.556-.921a6.067 6.067 0 0 1-2.327-2.554c-.54-1.088-.808-2.344-.808-3.766 0-1.4.264-2.65.792-3.75s1.287-1.956 2.279-2.57c.99-.614 2.155-.921 3.49-.921 1.488 0 2.738.355 3.75 1.067 1.014.71 1.703 1.713 2.07 3.006l3.956-.52z"/>
</svg>
