<svg xmlns="http://www.w3.org/2000/svg" xmlns:xlink="http://www.w3.org/1999/xlink" width="63" height="24" viewBox="0 0 63 24">
    <defs>
        <path id="a" d="M10.372 10.94c-.17-.845-.53-1.49-1.077-1.938-.548-.447-1.224-.67-2.027-.67-.609 0-1.126.127-1.552.38-.426.254-.64.598-.64 1.033 0 .531.341.966 1.023 1.304.682.338 1.936.749 3.762 1.232 1.875.507 3.25 1.177 4.127 2.01.876.834 1.315 1.963 1.315 3.387 0 1.136-.299 2.156-.895 3.062-.597.905-1.449 1.618-2.557 2.137-1.108.52-2.392.779-3.853.779-2.142 0-3.89-.465-5.24-1.395-1.352-.93-2.271-2.24-2.758-3.93l.146-.471 3.908-1.16c.438 2.03 1.765 3.043 3.98 3.043.756 0 1.37-.157 1.845-.47.475-.315.712-.75.712-1.305 0-.58-.274-1.032-.821-1.358-.548-.326-1.613-.695-3.196-1.105-1.924-.459-3.372-1.13-4.346-2.01-.974-.882-1.461-2.047-1.461-3.497 0-.966.274-1.841.822-2.626.548-.785 1.32-1.407 2.319-1.866.998-.458 2.142-.688 3.433-.688 1.948 0 3.53.417 4.748 1.25 1.217.833 2.008 2.01 2.374 3.532l-.183.398-3.908.942zm12.162 12.716a6.372 6.372 0 0 1-2.904-.67 5.225 5.225 0 0 1-2.118-1.92c-.523-.834-.785-1.806-.785-2.917 0-1.642.566-2.964 1.698-3.966 1.132-1.003 2.709-1.6 4.73-1.794l4.93-.507v-.797c0-.82-.262-1.46-.785-1.92-.523-.459-1.26-.688-2.21-.688-.852 0-1.54.223-2.063.67-.524.447-.834 1.057-.931 1.83l-4.31-.363-.183-.217c.366-1.811 1.224-3.194 2.575-4.148 1.352-.954 3.013-1.43 4.985-1.43 2.314 0 4.188.573 5.625 1.72 1.436 1.147 2.155 2.76 2.155 4.836v6.485c0 1.135.438 1.702 1.314 1.702.268 0 .5-.036.694-.108l.183.217v3.478c-.755.241-1.595.362-2.52.362-1.972 0-3.348-.821-4.127-2.463h-.22c-.803.845-1.655 1.49-2.556 1.938-.9.446-1.96.67-3.177.67zm1.169-3.84c1.63 0 3.092-.882 4.382-2.645v-2.1l-4.017.506c-.852.097-1.504.35-1.954.761-.45.41-.676.918-.676 1.522 0 .603.207 1.08.621 1.43.414.35.962.526 1.644.526zM42.95 5.18h3.87v3.623h-3.87v8.912c0 .58.17 1.026.51 1.34.342.314.829.471 1.462.471.39 0 .876-.084 1.46-.254l.256.145v3.877a14.252 14.252 0 0 1-3.214.362c-1.704 0-3.055-.459-4.054-1.377-.998-.917-1.497-2.294-1.497-4.13V8.803h-3.25V5.18h3.25V0h.657l4.42 1.522V5.18zm15.01 5.76c-.17-.845-.53-1.49-1.077-1.938-.548-.447-1.224-.67-2.027-.67-.609 0-1.126.127-1.553.38-.426.254-.639.598-.639 1.033 0 .531.341.966 1.023 1.304.682.338 1.936.749 3.762 1.232 1.874.507 3.25 1.177 4.127 2.01.876.834 1.314 1.963 1.314 3.387 0 1.136-.298 2.156-.894 3.062-.597.905-1.449 1.618-2.557 2.137-1.108.52-2.392.779-3.853.779-2.143 0-3.89-.465-5.24-1.395-1.352-.93-2.271-2.24-2.758-3.93l.146-.471 3.908-1.16c.438 2.03 1.765 3.043 3.98 3.043.755 0 1.37-.157 1.845-.47.475-.315.712-.75.712-1.305 0-.58-.274-1.032-.822-1.358-.547-.326-1.613-.695-3.195-1.105-1.924-.459-3.372-1.13-4.346-2.01-.974-.882-1.461-2.047-1.461-3.497 0-.966.274-1.841.822-2.626.547-.785 1.32-1.407 2.319-1.866.998-.458 2.142-.688 3.433-.688 1.948 0 3.53.417 4.748 1.25 1.217.833 2.008 2.01 2.373 3.532l-.182.398-3.908.942z"/>
        <linearGradient id="c" x1="50%" x2="50%" y1="0%" y2="100%">
            <stop offset="0%" stop-color="#9EACFF"/>
            <stop offset="20.922%" stop-color="#FF6F69"/>
            <stop offset="47.807%" stop-color="#E958D2"/>
            <stop offset="100%" stop-color="#6800C7"/>
        </linearGradient>
    </defs>
    <g fill="none" fill-rule="evenodd">
        <mask id="b" fill="#fff">
            <use xlink:href="#a"/>
        </mask>
        <use fill="#865EFC" fill-rule="nonzero" xlink:href="#a"/>
        <g fill="url(#c)" mask="url(#b)">
            <path d="M0-2.743h63v28.8H0z"/>
        </g>
    </g>
</svg>
