<svg xmlns="http://www.w3.org/2000/svg" width="74" height="30" viewBox="0 0 74 30">
    <g fill="#FFF" fill-rule="evenodd">
        <path d="M30 10.303a8.12 8.12 0 0 0-1.04-1.61c-.842-1.018-1.925-1.811-3.247-2.38-1.323-.568-2.826-.852-4.511-.852-1.92 0-3.689.441-5.305 1.323a9.954 9.954 0 0 0-3.85 3.717c-.95 1.597-1.425 3.443-1.425 5.54 0 2.096.475 3.943 1.425 5.54a9.954 9.954 0 0 0 3.85 3.717c1.616.882 3.385 1.322 5.305 1.322 2.35 0 4.349-.582 5.995-1.748 1.19-.844 2.125-1.951 2.803-3.323v7.227c0 .676-.547 1.224-1.221 1.224H1.22A1.223 1.223 0 0 1 0 28.776V1.224C0 .548.547 0 1.221 0H28.78C29.453 0 30 .548 30 1.224v9.079zm0 2.385v6.709l-3.597-.476c-.352 1.175-.98 2.086-1.88 2.733-.902.646-1.999.97-3.292.97-1.234 0-2.312-.28-3.233-.838a5.515 5.515 0 0 1-2.116-2.322c-.49-.989-.734-2.13-.734-3.423 0-1.274.24-2.41.72-3.41.48-.998 1.17-1.777 2.072-2.335.9-.559 1.959-.838 3.173-.838 1.352 0 2.489.323 3.41.97.92.646 1.547 1.557 1.88 2.733L30 12.688zM36.406 26.824c-1.334 0-2.448-.396-3.34-1.19-.894-.793-1.34-1.856-1.34-3.188 0-1.352.466-2.425 1.398-3.218.932-.794 2.164-1.269 3.694-1.426l4.269-.44v-.794c0-.764-.25-1.347-.75-1.748-.501-.402-1.193-.603-2.076-.603-.746 0-1.364.186-1.855.559-.49.372-.804.92-.942 1.645l-2.914-.147-.147-.117c.275-1.49.962-2.63 2.06-3.424 1.1-.793 2.405-1.19 3.916-1.19 1.785 0 3.228.446 4.327 1.337 1.099.891 1.648 2.111 1.648 3.659v6.024c0 .47.103.833.31 1.088.205.254.495.382.868.382.176 0 .392-.03.647-.089l.089.06v2.41a5.834 5.834 0 0 1-1.855.293c-.706 0-1.334-.167-1.884-.5-.55-.333-.952-.881-1.207-1.645h-.117c-1.394 1.508-2.993 2.262-4.799 2.262zm.619-2.733c1.412 0 2.767-.744 4.062-2.233v-2.145l-3.827.44c-.746.098-1.32.338-1.722.72a1.852 1.852 0 0 0-.603 1.396c0 .588.196 1.039.588 1.352.393.314.893.47 1.502.47zm17.993-7.758c-.137-.725-.451-1.278-.942-1.66-.49-.382-1.099-.573-1.825-.573-.569 0-1.06.117-1.471.352-.413.235-.619.578-.619 1.029 0 .47.285.862.854 1.175.57.314 1.56.666 2.973 1.058 1.57.412 2.728.95 3.474 1.617.745.666 1.118 1.557 1.118 2.674 0 .901-.24 1.72-.721 2.454-.48.734-1.153 1.312-2.016 1.734-.864.42-1.865.631-3.003.631-1.746 0-3.16-.406-4.239-1.22-1.08-.812-1.746-1.944-2.001-3.393l.058-.177 2.797-.47c.196.803.56 1.42 1.089 1.852.53.43 1.305.646 2.326.646.726 0 1.33-.157 1.81-.47.48-.314.721-.745.721-1.293 0-.549-.275-.985-.824-1.308-.55-.323-1.521-.661-2.914-1.014-1.511-.372-2.64-.906-3.386-1.601-.745-.696-1.118-1.612-1.118-2.748 0-.745.216-1.43.647-2.057.432-.627 1.04-1.122 1.826-1.484.784-.363 1.677-.544 2.678-.544 1.57 0 2.85.367 3.842 1.102.99.735 1.584 1.788 1.78 3.16l-.088.146-2.826.382zm9.046 10.491c-1.335 0-2.449-.396-3.341-1.19-.893-.793-1.34-1.856-1.34-3.188 0-1.352.466-2.425 1.398-3.218.933-.794 2.164-1.269 3.695-1.426l4.268-.44v-.794c0-.764-.25-1.347-.75-1.748-.501-.402-1.193-.603-2.076-.603-.746 0-1.364.186-1.854.559-.491.372-.805.92-.942 1.645l-2.915-.147-.147-.117c.275-1.49.962-2.63 2.06-3.424 1.1-.793 2.405-1.19 3.916-1.19 1.786 0 3.228.446 4.327 1.337 1.099.891 1.648 2.111 1.648 3.659v6.024c0 .47.103.833.31 1.088.206.254.495.382.868.382.176 0 .392-.03.647-.089l.089.06v2.41a5.834 5.834 0 0 1-1.855.293c-.706 0-1.334-.167-1.884-.5-.55-.333-.951-.881-1.207-1.645h-.117c-1.394 1.508-2.993 2.262-4.798 2.262zm.618-2.733c1.413 0 2.767-.744 4.062-2.233v-2.145l-3.827.44c-.746.098-1.32.338-1.722.72a1.852 1.852 0 0 0-.603 1.396c0 .588.196 1.039.588 1.352.393.314.893.47 1.502.47z"/>
    </g>
</svg>
