<svg xmlns="http://www.w3.org/2000/svg" width="19" height="18" viewBox="0 0 19 18">
    <g fill="#FFF" fill-rule="evenodd">
        <path d="M.215 8.363h8.336V.027H.215v8.336zm1.688-6.648h4.96v4.96h-4.96v-4.96z"/>
        <path d="M2.788 5.789h3.189V2.602H2.788zM.215 17.972h8.336V9.637H.215v8.335zm1.688-6.647h4.96v4.96h-4.96v-4.96z"/>
        <path d="M2.788 15.398h3.189V12.21H2.788zM10.012.028v8.335h8.335V.028h-8.335zm6.648 6.647H11.7v-4.96h4.96v4.96z"/>
        <path d="M12.586 5.789h3.187V2.602h-3.187zM10.012 11.414h5.527V9.637h-5.527zM10.012 17.972h1.776v-5.76h-1.776zM16.453 15.09h-2.18v1.106h-1.828v1.776h2.016v-1.104h1.87v1.104h2.016v-1.776h-1.894z"/>
        <path d="M16.57 12.167h-3.188v1.777h4.965V9.637h-1.776z"/>
    </g>
</svg>
